<?xml version="1.0" encoding="UTF-8" standalone="no"?>
<!-- Uploaded to: SVG Repo, www.svgrepo.com, Generator: SVG Repo Mixer Tools -->

<svg
   fill="#000000"
   height="32"
   width="32"
   version="1.1"
   id="Layer_1"
   viewBox="0 0 12 12"
   xml:space="preserve"
   sodipodi:docname="attach.svg"
   inkscape:version="1.3.1 (9b9bdc1480, 2023-11-25, custom)"
   xmlns:inkscape="http://www.inkscape.org/namespaces/inkscape"
   xmlns:sodipodi="http://sodipodi.sourceforge.net/DTD/sodipodi-0.dtd"
   xmlns="http://www.w3.org/2000/svg"
   xmlns:svg="http://www.w3.org/2000/svg"><sodipodi:namedview
   id="namedview1"
   pagecolor="#ffffff"
   bordercolor="#000000"
   borderopacity="0.25"
   inkscape:showpageshadow="2"
   inkscape:pageopacity="0.0"
   inkscape:pagecheckerboard="0"
   inkscape:deskcolor="#d1d1d1"
   inkscape:zoom="34.71875"
   inkscape:cx="16"
   inkscape:cy="16"
   inkscape:window-width="5120"
   inkscape:window-height="1315"
   inkscape:window-x="0"
   inkscape:window-y="0"
   inkscape:window-maximized="1"
   inkscape:current-layer="Layer_1" /><defs
   id="defs2" />
<g
   id="g2"
   style="fill:#00a700;fill-opacity:1"
   transform="matrix(1.0050547,0,0,1.0051766,-0.00100505,0)">
	<g
   id="g1"
   style="fill:#00a700;fill-opacity:1">
		
	<ellipse
   style="fill:#f2f2f2;fill-opacity:1;stroke-width:0.375"
   id="path2"
   cx="6.1151023"
   cy="6.0744634"
   rx="4.4862566"
   ry="4.5073771" /><path
   d="M 5.9706653,0 C 2.673748,0 0.001,2.672605 0.001,5.968981 c 0,3.296376 2.672748,5.96922 5.9696653,5.96922 3.2969172,0 5.9699837,-2.6726849 5.9699837,-5.96922 C 11.940649,2.6724458 9.2675825,0 5.9706653,0 Z m 2.8656542,5.3163991 -3.922957,3.9221765 1.991e-4,1.989e-4 c -0.00135,0.00135 -0.00266,0.00227 -0.00403,0.00363 l -0.024039,0.024036 -0.00124,-0.00135 C 4.6629388,9.4711714 4.3761864,9.5739996 4.079325,9.5739996 c -0.3540528,0 -0.7213189,-0.144373 -1.0054844,-0.428542 C 2.8211639,8.8930045 2.6696487,8.5668528 2.6472418,8.2270916 2.6250339,7.8910313 2.7314567,7.5809962 2.9451381,7.3462911 L 2.9429881,7.3441411 6.819818,3.4678073 C 7.1472459,3.1403462 7.7037169,3.1644614 8.0606353,3.5212543 8.2279506,3.6885484 8.3286025,3.9055053 8.3435669,4.1319331 8.3594469,4.370538 8.2756301,4.6001096 8.1136873,4.7618324 L 4.9577784,7.9176535 4.5197892,7.4798398 7.6758973,4.3238969 C 7.7221438,4.2776563 7.7284321,4.2163337 7.7255666,4.173197 7.7205121,4.097668 7.6829418,4.0196319 7.6225665,3.9592247 7.5091392,3.8458118 7.3420228,3.8214579 7.2576884,3.9058609 l -3.8388217,3.8382509 1.194e-4,1.194e-4 C 3.3082252,7.8548585 3.2536209,8.0118458 3.2652024,8.1862629 3.277779,8.3760804 3.365337,8.5612419 3.5117976,8.7076838 3.8025698,8.9983392 4.2337532,9.0405208 4.4741397,8.8022348 L 8.3986489,4.8785457 C 8.5814461,4.6956525 8.6718696,4.4385832 8.6530846,4.154852 8.6332646,3.8556409 8.4961965,3.5649059 8.2673517,3.3360904 7.805722,2.8746391 7.1138545,2.8157042 6.724699,3.204611 L 3.4779285,6.4508466 3.0399395,6.0130329 6.2867099,2.766678 C 6.9172072,2.1363808 8.0021703,2.1951963 8.7052213,2.8980779 9.0403695,3.2329841 9.2412355,3.6647092 9.2710849,4.1137845 9.3017699,4.5782601 9.147429,5.0053294 8.8363195,5.3163991 Z"
   id="path1"
   style="fill:#00a700;fill-opacity:1;stroke-width:0.0397966" /></g>
</g>
</svg>
