<?xml version="1.0" encoding="UTF-8" standalone="no"?>
<svg
   id="Layer_1"
   data-name="Layer 1"
   viewBox="0 0 32.000001 32.000001"
   version="1.1"
   sodipodi:docname="close-red-icon.svg"
   inkscape:version="1.3.1 (9b9bdc1480, 2023-11-25, custom)"
   width="32"
   height="32"
   xmlns:inkscape="http://www.inkscape.org/namespaces/inkscape"
   xmlns:sodipodi="http://sodipodi.sourceforge.net/DTD/sodipodi-0.dtd"
   xmlns="http://www.w3.org/2000/svg"
   xmlns:svg="http://www.w3.org/2000/svg"
   xmlns:rdf="http://www.w3.org/1999/02/22-rdf-syntax-ns#"
   xmlns:cc="http://creativecommons.org/ns#"
   xmlns:dc="http://purl.org/dc/elements/1.1/">
  <sodipodi:namedview
     id="namedview64"
     pagecolor="#ffffff"
     bordercolor="#000000"
     borderopacity="0.25"
     inkscape:showpageshadow="2"
     inkscape:pageopacity="0.0"
     inkscape:pagecheckerboard="0"
     inkscape:deskcolor="#d1d1d1"
     showgrid="false"
     inkscape:zoom="19.954428"
     inkscape:cx="15.0092"
     inkscape:cy="20.747275"
     inkscape:window-width="1444"
     inkscape:window-height="1216"
     inkscape:window-x="26"
     inkscape:window-y="23"
     inkscape:window-maximized="0"
     inkscape:current-layer="layer1" />
  <defs
     id="defs57">
    <style
       id="style55">.cls-1{fill:#f44336;fill-rule:evenodd;}</style>
  </defs>
  <title
     id="title59">close-red</title>
  <g
     inkscape:groupmode="layer"
     id="layer1"
     inkscape:label="Layer 1">
    <rect
       style="fill:#f2f2f2"
       id="rect2"
       width="17.046656"
       height="17.15354"
       x="7.2935724"
       y="7.2041106" />
  </g>
  <rect
     style="fill:#ffffff"
     id="rect276"
     width="64.38401"
     height="61.404247"
     x="29.73613"
     y="30.932556" />
  <path
     class="cls-1"
     d="M 16,0 A 16,16 0 1 1 0,16.000001 16,16 0 0 1 16,0 Z m 3.421874,9.5833339 C 19.875,9.1223967 20.158854,8.7552095 20.723958,9.322918 l 1.822917,1.856771 c 0.596354,0.588542 0.565104,0.932292 0,1.48177 l -3.450521,3.440105 3.320312,3.320313 c 0.460938,0.453124 0.828125,0.736979 0.260417,1.302083 l -1.856771,1.822916 c -0.588542,0.596355 -0.932292,0.565105 -1.479166,0 L 16,19.197919 12.664062,22.533856 c -0.546874,0.559896 -0.890625,0.591146 -1.479167,0 L 9.3281244,20.710939 C 8.7552079,20.151044 9.1223961,19.867189 9.5885412,19.408856 L 12.903646,16.101564 9.4661458,12.666668 c -0.559896,-0.54948 -0.591146,-0.893229 0,-1.481771 L 11.289062,9.3281262 c 0.559896,-0.5729167 0.843751,-0.2057295 1.302083,0.260417 L 16,13.00521 Z"
     id="path61"
     style="stroke-width:0.260416" />
  <metadata
     id="metadata1">
    <rdf:RDF>
      <cc:Work
         rdf:about="">
        <dc:title>close-red</dc:title>
      </cc:Work>
    </rdf:RDF>
  </metadata>
</svg>
