<?xml version="1.0" encoding="UTF-8" standalone="no"?>
<!-- Uploaded to: SVG Repo, www.svgrepo.com, Generator: SVG Repo Mixer Tools -->

<svg
   fill="#000000"
   height="32"
   width="32"
   version="1.1"
   id="Layer_1"
   viewBox="0 0 12 12"
   xml:space="preserve"
   sodipodi:docname="edit.svg"
   inkscape:version="1.3.1 (9b9bdc1480, 2023-11-25, custom)"
   xmlns:inkscape="http://www.inkscape.org/namespaces/inkscape"
   xmlns:sodipodi="http://sodipodi.sourceforge.net/DTD/sodipodi-0.dtd"
   xmlns="http://www.w3.org/2000/svg"
   xmlns:svg="http://www.w3.org/2000/svg"><sodipodi:namedview
   id="namedview1"
   pagecolor="#ffffff"
   bordercolor="#000000"
   borderopacity="0.25"
   inkscape:showpageshadow="2"
   inkscape:pageopacity="0.0"
   inkscape:pagecheckerboard="0"
   inkscape:deskcolor="#d1d1d1"
   inkscape:zoom="24.549864"
   inkscape:cx="14.378899"
   inkscape:cy="21.649815"
   inkscape:window-width="2077"
   inkscape:window-height="1295"
   inkscape:window-x="26"
   inkscape:window-y="23"
   inkscape:window-maximized="0"
   inkscape:current-layer="g2" /><defs
   id="defs2" />
<g
   id="g2"
   style="fill:#00a700;fill-opacity:1">
	<g
   id="g1"
   style="fill:#00a700;fill-opacity:1"
   transform="matrix(1.0050547,0,0,1.0051766,-0.00100505,0)">
		
	<path
   d="M 5.9706653,0 C 2.673748,0 0.001,2.672605 0.001,5.968981 c 0,3.296376 2.672748,5.96922 5.9696653,5.96922 3.2969172,0 5.9699837,-2.6726849 5.9699837,-5.96922 C 11.940649,2.6724458 9.2675825,0 5.9706653,0 Z"
   id="path1"
   style="fill:#0095c5;fill-opacity:1;stroke-width:0.0397966"
   sodipodi:nodetypes="sssss" /></g>
<path
   d="M 6.8286192,4.2012321 7.9771781,5.3681469 5.0698618,8.3219589 3.921955,7.1550432 Z M 8.8487112,3.9197981 8.3364984,3.3993942 c -0.1979521,-0.2011175 -0.5193867,-0.2011175 -0.7180111,0 L 7.1278381,3.8978894 8.276397,5.0648155 8.8487112,4.4833481 c 0.1535326,-0.1559987 0.1535326,-0.4075617 0,-0.56355 z M 3.320891,8.7952375 c -0.020902,0.095575 0.06403,0.1812144 0.1581126,0.1579722 L 4.758878,8.6379262 3.6109727,7.4710106 Z"
   id="path1-7"
   style="fill:#f2f2f2;stroke-width:0.0107604" /></g>
</svg>
