<?xml version="1.0" encoding="UTF-8" standalone="no"?>
<svg
   id="icon"
   width="32"
   height="32"
   viewBox="0 0 32 32"
   version="1.1"
   sodipodi:docname="getter.svg"
   inkscape:version="1.3.1 (9b9bdc1480, 2023-11-25, custom)"
   xmlns:inkscape="http://www.inkscape.org/namespaces/inkscape"
   xmlns:sodipodi="http://sodipodi.sourceforge.net/DTD/sodipodi-0.dtd"
   xmlns="http://www.w3.org/2000/svg"
   xmlns:svg="http://www.w3.org/2000/svg">
  <sodipodi:namedview
     id="namedview2"
     pagecolor="#ffffff"
     bordercolor="#000000"
     borderopacity="0.25"
     inkscape:showpageshadow="2"
     inkscape:pageopacity="0.0"
     inkscape:pagecheckerboard="0"
     inkscape:deskcolor="#d1d1d1"
     inkscape:zoom="16.59375"
     inkscape:cx="16"
     inkscape:cy="16"
     inkscape:window-width="1546"
     inkscape:window-height="731"
     inkscape:window-x="54"
     inkscape:window-y="32"
     inkscape:window-maximized="1"
     inkscape:current-layer="icon" />
  <defs
     id="defs1">
    <style
       id="style1">.cls-1{fill:none;}</style>
  </defs>
  <title
     id="title1">types</title>
  <polygon
     points="20.586,9.414 22,8 30,16 22,24 20.586,22.586 27.172,16 "
     id="polygon1"
     style="fill:#008000"
     transform="matrix(1.8967716,0,0,1.9955972,-24.972829,-15.92882)" />
  <path
     d="M 12.020186,28.394186 A 1.9682011,2.043969 0 0 1 10.624061,27.793319 L 0.75047203,17.539636 a 1.9735329,2.049506 0 0 1 0,-2.89974 L 10.624061,4.3862133 a 1.9735329,2.049506 0 0 1 2.79225,0 L 23.2899,14.639896 a 1.9735329,2.049506 0 0 1 0,2.89974 l -9.873589,10.253683 a 1.9682011,2.043969 0 0 1 -1.396125,0.600867 z m -7.0811403,-12.30442 7.0811403,7.353735 7.08114,-7.353735 -7.08114,-7.3537358 z"
     id="path1"
     style="fill:#008000;stroke-width:2.01238" />
  <rect
     id="_Transparent_Rectangle_"
     data-name="&lt;Transparent Rectangle&gt;"
     class="cls-1"
     width="32"
     height="32" />
</svg>
