<?xml version="1.0" encoding="UTF-8" standalone="no"?>
<svg
   id="icon"
   width="32"
   height="32"
   viewBox="0 0 32 32"
   version="1.1"
   sodipodi:docname="setter.svg"
   inkscape:version="1.3.1 (9b9bdc1480, 2023-11-25, custom)"
   xmlns:inkscape="http://www.inkscape.org/namespaces/inkscape"
   xmlns:sodipodi="http://sodipodi.sourceforge.net/DTD/sodipodi-0.dtd"
   xmlns="http://www.w3.org/2000/svg"
   xmlns:svg="http://www.w3.org/2000/svg">
  <sodipodi:namedview
     id="namedview2"
     pagecolor="#ffffff"
     bordercolor="#000000"
     borderopacity="0.25"
     inkscape:showpageshadow="2"
     inkscape:pageopacity="0.0"
     inkscape:pagecheckerboard="0"
     inkscape:deskcolor="#d1d1d1"
     inkscape:zoom="16.59375"
     inkscape:cx="15.879473"
     inkscape:cy="16.301318"
     inkscape:window-width="1546"
     inkscape:window-height="731"
     inkscape:window-x="54"
     inkscape:window-y="32"
     inkscape:window-maximized="1"
     inkscape:current-layer="icon" />
  <defs
     id="defs1">
    <style
       id="style1">.cls-1{fill:none;}</style>
  </defs>
  <title
     id="title1">types</title>
  <path
     d="M 20.126942,27.793902 A 1.943272,1.9740696 0 0 1 18.7485,27.213585 L 8.9999693,17.310557 a 1.9485363,1.9794172 0 0 1 0,-2.800576 L 18.7485,4.6069528 a 1.9485363,1.9794172 0 0 1 2.756884,0 l 9.74853,9.9030282 a 1.9485363,1.9794172 0 0 1 0,2.800576 l -9.74853,9.903028 a 1.943272,1.9740696 0 0 1 -1.378442,0.580317 z m -6.991451,-11.883633 6.991451,7.102254 6.991451,-7.102254 -6.991451,-7.1022541 z"
     id="path1"
     style="fill:#d45500;stroke-width:1.96511" />
  <polygon
     points="10,8 11.414,9.414 4.828,16 11.414,22.586 10,24 2,16 "
     id="polygon2"
     style="fill:#d45500"
     transform="matrix(2.0052344,0,0,1.991827,-3.9378465,-15.838335)" />
  <rect
     id="_Transparent_Rectangle_"
     data-name="&lt;Transparent Rectangle&gt;"
     class="cls-1"
     width="32"
     height="32" />
</svg>
