<?xml version="1.0" encoding="UTF-8" standalone="no"?>
<!-- Uploaded to: SVG Repo, www.svgrepo.com, Generator: SVG Repo Mixer Tools -->

<svg
   fill="#000000"
   height="32"
   width="32"
   version="1.1"
   id="Layer_1"
   viewBox="0 0 12 12"
   xml:space="preserve"
   xmlns="http://www.w3.org/2000/svg"
   xmlns:svg="http://www.w3.org/2000/svg"><defs
   id="defs2" />
<g
   id="g2"
   style="fill:#00a700;fill-opacity:1"
   transform="matrix(1.0050547,0,0,1.0051766,-0.00100505,0)">
	<g
   id="g1"
   style="fill:#00a700;fill-opacity:1">
		
	<path
   d="M 5.9706653,0 C 2.673748,0 0.001,2.672605 0.001,5.968981 c 0,3.296376 2.672748,5.96922 5.9696653,5.96922 3.2969172,0 5.9699837,-2.6726849 5.9699837,-5.96922 C 11.940649,2.6724458 9.2675825,0 5.9706653,0 Z"
   id="path1"
   style="fill:#666666;fill-opacity:1;stroke-width:0.0397966" /><path
   d="M 11.062585,5.7739622 C 10.970743,5.6646256 8.7822703,3.0957628 5.9952618,3.0957628 c -2.7872695,0 -4.9757423,2.5688628 -5.06758469,2.6781994 L 0.73996004,5.9975997 0.92767711,6.2212368 c 0.0918417,0.1093365 2.28031519,2.6783204 5.06758469,2.6783204 2.7870085,0 4.9754812,-2.5689839 5.0673232,-2.6783204 L 11.250303,5.9975997 Z M 5.9952618,8.1731901 c -1.9601695,0 -3.6710878,-1.579628 -4.2464678,-2.1754695 0.57564,-0.5959626 2.2864289,-2.1753485 4.2464678,-2.1753485 1.9599074,0 3.6708276,1.579507 4.2463372,2.1753485 C 9.6658293,6.5936831 7.9550397,8.1731901 5.9952618,8.1731901 Z"
   id="path1-5"
   style="fill:#f9f9f9;stroke-width:0.125503" /><path
   d="m 5.9951313,4.0102907 c -1.1775574,0 -2.1355277,0.8915221 -2.1355277,1.9874299 0,1.0961499 0.9579703,1.9877933 2.1355277,1.9877933 1.1775573,0 2.1355277,-0.8916434 2.1355277,-1.9877933 0,-1.0959078 -0.9579704,-1.9874299 -2.1355277,-1.9874299 z m 0,3.2486137 c -0.747227,0 -1.3549979,-0.5658135 -1.3549979,-1.2613047 0,-0.6952495 0.6077709,-1.2609417 1.3549979,-1.2609417 0.7470964,0 1.354999,0.5656922 1.354999,1.2609417 0,0.6954912 -0.6079026,1.2613047 -1.354999,1.2613047 z"
   id="path2"
   style="fill:#f9f9f9;stroke-width:0.125503" /></g>
</g>
</svg>
